<svg width="95" height="24" viewBox="0 0 95 24" fill="none" xmlns="http://www.w3.org/2000/svg">
<path d="M11.5326 1.19899C10.4949 1.19899 9.54979 1.48574 8.70002 2.05924C7.84736 2.63274 7.11032 3.41188 6.486 4.39957C5.86168 5.38726 5.38187 6.54584 5.04948 7.87821C4.71709 9.21058 4.54945 10.6385 4.54945 12.1592C4.54945 13.6798 4.72865 15.0991 5.08706 16.3387C5.44546 17.5784 5.96573 18.6385 6.64497 19.5191C7.3242 20.3996 8.14218 21.0802 9.09889 21.5582C10.0556 22.039 11.1222 22.2794 12.2928 22.2794C13.6483 22.2794 14.8536 21.9781 15.9057 21.3786C16.9578 20.779 17.8134 19.9854 18.481 18.9977L18.64 19.157C17.7874 20.8369 16.7092 22.065 15.4057 22.8355C14.1021 23.6088 12.3852 23.9941 10.2579 23.9941C8.74049 23.9941 7.35022 23.7131 6.08713 23.1541C4.82403 22.5951 3.74592 21.8072 2.8528 20.7935C1.95967 19.7797 1.26309 18.5603 0.757278 17.1324C0.251462 15.7073 0 14.1259 0 12.3938C0 10.6617 0.286147 9.20768 0.858441 7.79421C1.43073 6.38075 2.2227 5.15555 3.23433 4.11572C4.24596 3.07589 5.44257 2.26199 6.82706 1.67691C8.21155 1.09182 9.70009 0.796387 11.2985 0.796387C12.576 0.796387 13.7986 1.01072 14.9692 1.4365C16.1398 1.86228 17.2035 2.5024 18.1631 3.35685L17.1659 7.63781L16.9665 7.55671C17.1255 5.58422 16.7121 4.03172 15.7294 2.89631C14.7438 1.7638 13.3477 1.1961 11.5384 1.1961L11.5326 1.19899Z" fill="#292929"/>
<path d="M20.8714 4.15931C20.8714 3.33382 20.7789 2.75163 20.5911 2.41854C20.4032 2.08545 20.0708 1.91745 19.5939 1.91745L19.513 1.75815L25.4238 0V9.48009C26.0365 8.83997 26.788 8.26647 27.6783 7.75959C28.5685 7.25272 29.6553 7.00072 30.9299 7.00072C34.1238 7.00072 35.7193 9.10645 35.7193 13.3208V21.7205C35.7193 22.601 35.9245 23.1803 36.3378 23.4613C36.7512 23.7422 37.1558 23.8812 37.5547 23.8812V24H33.2827C33.0688 24 32.8434 23.9681 32.6035 23.8986C32.3636 23.832 32.1381 23.7046 31.9242 23.5192C31.7103 23.3338 31.5311 23.0934 31.3866 22.798C31.2392 22.5054 31.167 22.1463 31.167 21.7176V13.118C31.167 11.5192 30.9271 10.3664 30.4472 9.65967C29.9674 8.95293 29.1957 8.59957 28.1321 8.59957C27.5453 8.59957 27.0279 8.74728 26.5741 9.03983C26.1204 9.33237 25.7359 9.66546 25.418 10.0391V20.9993C25.418 22.0941 25.5625 22.8327 25.8573 23.218C26.1493 23.6061 26.6031 23.7973 27.2129 23.7973V23.9971H19.0303V23.7973C19.6951 23.7973 20.1691 23.6119 20.4466 23.2382C20.7269 22.8646 20.8657 22.1318 20.8657 21.0369V4.15931H20.8714Z" fill="#292929"/>
<path d="M69.2875 11.3601C69.2875 10.5346 69.195 9.95532 69.0071 9.61934C68.8192 9.28624 68.4868 9.11825 68.0099 9.11825L67.929 8.95894L73.8369 7.1979V9.47741C74.4208 8.83729 75.1462 8.2638 76.0134 7.75692C76.8776 7.25004 77.9239 6.99805 79.1465 6.99805C81.0079 6.99805 82.2999 7.75692 83.0196 9.27755C83.6035 8.66351 84.3087 8.13056 85.1354 7.67871C85.9591 7.22687 86.9563 6.99805 88.1298 6.99805C91.1907 6.99805 92.7197 9.10377 92.7197 13.3181V21.7178C92.7197 22.5983 92.9249 23.1776 93.3383 23.4586C93.7516 23.7395 94.1562 23.8786 94.5551 23.8786V23.9973H90.2831C90.0692 23.9973 89.8438 23.9655 89.6039 23.8959C89.364 23.8293 89.1385 23.7019 88.9247 23.5165C88.7108 23.3311 88.5316 23.0907 88.387 22.7953C88.2396 22.5028 88.1674 22.1436 88.1674 21.7149V13.1154C88.1674 11.5165 87.9477 10.3637 87.5084 9.65699C87.069 8.95026 86.3435 8.59689 85.3319 8.59689C84.8781 8.59689 84.4793 8.69826 84.1353 8.89812C83.7885 9.09797 83.4705 9.34417 83.1757 9.63671C83.5486 10.6244 83.7335 11.8496 83.7335 13.3152V21.7149C83.7335 22.5954 83.9388 23.1747 84.3521 23.4557C84.7654 23.7366 85.1701 23.8757 85.5689 23.8757V23.9944H81.297C81.0831 23.9944 80.8576 23.9626 80.6177 23.893C80.3778 23.8264 80.1524 23.699 79.9385 23.5136C79.7246 23.3282 79.5454 23.0878 79.4009 22.7924C79.2535 22.4999 79.1812 22.1407 79.1812 21.712V13.1125C79.1812 11.5136 78.9615 10.3608 78.5222 9.65409C78.0829 8.94736 77.3574 8.59399 76.3457 8.59399C75.8139 8.59399 75.3341 8.74171 74.9092 9.03425C74.4843 9.32679 74.1231 9.65989 73.8311 10.0335V20.9937C73.8311 22.0886 73.9785 22.8272 74.2705 23.2124C74.5624 23.6005 75.0162 23.7917 75.6289 23.7917V23.9915H67.4463V23.7917C68.1111 23.7917 68.5851 23.6063 68.8626 23.2327C69.1429 22.859 69.2817 22.1262 69.2817 21.0314V11.3601H69.2875Z" fill="#292929"/>
<path d="M55.9521 14.2333L56.2383 13.9726L56.3366 13.8828L55.9521 14.2333Z" fill="#292929"/>
<path d="M51.9317 18.4996C52.0213 18.1289 52.1427 17.8132 52.3016 17.5988C52.345 17.5467 52.3826 17.5004 52.4288 17.4598C52.8971 17.0282 53.3653 16.5996 53.8335 16.1709C53.8451 16.1622 54.1919 15.8407 54.8914 15.2006C55.1313 14.9805 55.4203 14.7169 55.6805 14.4765L56.1429 14.0594C56.1863 14.0217 56.2297 13.9812 56.2701 13.9435C56.5852 13.651 56.906 13.3671 57.2211 13.0804C58.3136 12.0869 59.4062 11.0963 60.5045 10.1086C60.5594 10.0594 60.6115 10.013 60.6664 9.9638C60.6866 9.94642 60.7068 9.92905 60.7271 9.91167C60.7271 9.91167 60.7271 9.90877 60.73 9.90587C60.7502 9.89139 60.7675 9.87691 60.7849 9.86243V7.63216C60.7849 7.35989 60.5565 7.15424 60.2964 7.16293C60.5537 7.15135 60.7849 7.357 60.7849 7.62637V7.00073L60.1866 7.17742H60.1808C59.7848 7.29327 59.3888 7.40913 58.9929 7.52789C58.672 7.62057 58.3512 7.71616 58.0304 7.81174C57.4436 7.98553 56.8569 8.16221 56.2701 8.34179C55.9377 8.44606 55.6024 8.54744 55.2701 8.65171L54.8134 8.78784L55.1862 8.67778C55.0619 8.71543 54.9377 8.75309 54.8105 8.79364H54.796L54.2064 8.97032V8.99349C54.5214 8.99349 54.796 9.03694 55.0215 9.12094C55.0273 9.12094 55.033 9.12094 55.0359 9.12673C55.114 9.15569 55.1891 9.19045 55.2556 9.231C55.4464 9.32079 55.5996 9.44823 55.7181 9.60754C55.9811 9.95801 56.1198 10.6242 56.1343 11.6061V11.6148C56.1343 11.6785 56.1343 11.7422 56.1343 11.8059V13.0427C56.1198 13.0862 56.1025 13.1296 56.0822 13.1702C56.0244 13.2947 55.9493 13.4106 55.8568 13.5177C55.7209 13.68 55.5678 13.8248 55.4088 13.9667C55.2498 14.1086 55.0851 14.2448 54.929 14.3867C54.9145 14.4012 54.9001 14.4099 54.8856 14.4243C54.8683 14.4388 54.8538 14.4562 54.8336 14.4707C54.5012 14.769 54.1688 15.0702 53.8364 15.3686C53.1283 16.0058 52.4201 16.643 51.712 17.2802L50.1657 18.6734C49.4893 19.2933 48.813 19.9131 48.1337 20.5301C47.6828 20.9414 47.2435 21.3671 46.7752 21.7611C46.7059 21.8219 46.6365 21.8769 46.5642 21.9348C46.1972 22.2332 45.8099 22.5083 45.3879 22.7343C45.1075 22.8878 44.8271 22.992 44.5583 23.0471C44.3936 23.0818 44.2288 23.0992 44.0699 23.1021C43.6074 23.05 43.1999 22.798 42.8328 22.3519C42.4195 21.845 42.2142 21.0311 42.2142 19.9102C42.2142 18.685 42.3992 17.7379 42.7721 17.0717C42.8097 17.008 42.8443 16.9443 42.8819 16.8834C42.8819 16.8834 42.8819 16.8776 42.8877 16.8776C42.9513 16.8023 43.0206 16.7241 43.09 16.6517C43.2461 16.4895 43.4109 16.3389 43.5901 16.1941C44.6682 15.3309 45.8503 14.5923 47.2001 13.6597V20.5677C47.4545 20.3476 47.6973 20.1332 47.9372 19.9247C47.9834 19.9102 48.0268 19.8813 48.0672 19.8465C48.3621 19.5887 48.6482 19.3367 48.9315 19.0905L48.9835 19.0471L50.1107 18.0304L50.1252 18.0188C50.5645 17.6365 50.9952 17.2571 51.4259 16.8834C51.4779 16.8371 51.5241 16.7849 51.553 16.7299V16.7241L51.6051 16.6807C51.6744 16.6198 51.7236 16.5416 51.7467 16.4519C51.7698 16.3476 51.7785 16.2375 51.7785 16.1246C51.7785 15.2527 51.8103 14.3751 51.7525 13.5033C51.7236 13.0543 51.6686 12.6054 51.5733 12.1622C51.4952 11.8031 51.3969 11.4555 51.2727 11.1224C50.7755 9.74078 49.8853 8.64592 48.4083 8.05504C47.2579 7.5945 46.122 7.36858 45.0006 7.33962H44.9919C43.9658 7.31645 42.9542 7.45258 41.9483 7.72774C41.0783 7.96525 40.217 8.30414 39.3614 8.73281C39.3296 8.74729 39.2979 8.76467 39.2661 8.78495H39.2603C39.0955 8.86894 38.9279 8.95873 38.8123 9.08907L39.5464 12.2172C39.584 12.1477 39.6042 12.084 39.6129 12.0203L39.6447 12.1651C39.7603 11.9537 39.7054 11.7596 39.7343 11.5887C39.7777 11.3425 39.8355 11.105 39.9135 10.8762C40.4685 9.22231 41.9107 8.04346 43.6912 7.87546C45.2433 7.72485 46.3764 8.41999 46.9487 9.85953C47.0296 10.1521 47.0845 10.4591 47.1192 10.7835V10.7922C47.1423 11.0123 47.1539 11.2411 47.1539 11.4786C47.1539 12.1188 46.9255 12.6314 46.4746 13.0167C46.0237 13.4048 45.4515 13.7379 44.7578 14.0188C44.0641 14.2969 43.327 14.5779 42.5437 14.8588C41.7576 15.1369 41.0205 15.4902 40.3297 15.9189C39.636 16.3447 39.0666 16.8921 38.6128 17.5583C38.159 18.2245 37.9336 19.105 37.9336 20.197C37.9336 21.3961 38.3007 22.3317 39.0319 22.9949C39.2516 23.1977 39.5031 23.3686 39.7748 23.5076C39.7921 23.5192 39.8094 23.5279 39.8268 23.5366C40.4395 23.8436 41.1795 23.9971 42.0408 23.9971C42.1217 23.9971 42.2027 23.9971 42.2807 23.9971H42.3038C43.9022 24.0319 45.3994 23.6003 46.6452 22.5721C46.914 22.3519 47.1221 22.2042 47.3129 22.1608C47.3186 22.1752 47.3244 22.1839 47.3302 22.1955C47.5701 22.1897 47.7984 22.3606 48.1077 22.7603C48.6135 23.4091 49.3043 23.8059 50.0385 23.9624C50.0443 23.9624 50.0471 23.9624 50.0529 23.9624C50.2263 23.9855 50.3998 23.9942 50.579 23.9942C50.6772 23.9942 50.7697 23.9942 50.8651 23.9855H50.8854C51.6079 23.9855 52.3305 23.7654 52.9231 23.3338C52.9231 23.3338 52.9288 23.328 52.9317 23.328C52.9317 23.328 52.9375 23.3222 52.9433 23.3222C52.9895 23.2875 53.0271 23.2469 53.056 23.2035C53.3162 22.9776 53.5445 22.7053 53.7266 22.3867C53.4491 22.4765 53.1803 22.5634 52.926 22.5721C52.8797 22.5402 52.8248 22.5141 52.7641 22.5025C52.582 22.4649 52.4144 22.3722 52.2525 22.1984C51.7785 21.6886 51.634 20.2462 51.7958 19.0587C51.8218 18.8617 51.8565 18.6734 51.9028 18.4968L51.9317 18.4996Z" fill="#292929"/>
<path d="M61.2089 23.0211C60.914 22.633 60.7637 21.9089 60.7637 20.8401V10.52L60.1568 11.0617L60.0729 11.1341L56.2634 14.5287V20.7879C56.2634 21.8799 56.1218 22.6127 55.8385 22.9863C55.7171 23.1457 55.5611 23.2702 55.3703 23.3629C55.3009 23.4034 55.2287 23.4382 55.1477 23.4672C55.142 23.4672 55.1391 23.4672 55.1333 23.473C54.9021 23.5598 54.6246 23.6004 54.3066 23.6004V23.8003H62.5847V23.6004C61.9632 23.6004 61.5066 23.4063 61.2117 23.0182L61.2089 23.0211Z" fill="#292929"/>
<path d="M67.3458 7.70444C67.3458 7.70444 67.3314 7.68706 67.3256 7.67837C67.2996 7.64651 67.2736 7.61755 67.2447 7.58569C67.2389 7.57989 67.2331 7.5741 67.2302 7.5712C67.1898 7.52776 67.1522 7.48431 67.1059 7.44376C67.0626 7.40031 67.0192 7.35976 66.973 7.31921C66.9499 7.30183 66.9238 7.28735 66.9007 7.26997C66.8602 7.2468 66.8198 7.21784 66.7735 7.19467C66.7331 7.17149 66.6955 7.15122 66.6521 7.13094C66.5625 7.0846 66.4643 7.04115 66.3602 7.0006C66.3255 6.98612 66.2908 6.97164 66.2533 6.95716C66.181 6.93109 66.1001 6.90502 66.0192 6.88764C65.9585 6.87316 65.892 6.86157 65.8226 6.84709C65.7532 6.83551 65.6839 6.82392 65.6116 6.81813C65.5365 6.81233 65.4584 6.80364 65.3804 6.80364C65.3399 6.80364 65.3023 6.79785 65.2619 6.79785C65.2214 6.79785 65.1809 6.79785 65.1376 6.79785C65.0393 6.79785 64.941 6.80364 64.8457 6.81233C64.785 6.81813 64.7272 6.82682 64.6665 6.83551C64.5537 6.84999 64.441 6.87606 64.3341 6.90502C64.2734 6.9195 64.2156 6.93688 64.1577 6.95716C64.1202 6.97164 64.0797 6.98612 64.0421 7.0006C63.8889 7.06143 63.7329 7.13963 63.571 7.23811C63.4583 7.30473 63.3456 7.38004 63.2299 7.46114C63.2126 7.47272 63.1953 7.48431 63.1779 7.4959C63.1548 7.51038 63.1346 7.52776 63.1114 7.54803C63.0883 7.56541 63.0681 7.58279 63.045 7.60017C62.9554 7.66968 62.8658 7.74499 62.7762 7.82899C62.7241 7.87244 62.6692 7.92457 62.6143 7.97381C62.5767 8.00857 62.5391 8.04333 62.5016 8.08388C62.386 8.19394 62.2674 8.31559 62.1518 8.44304C62.1287 8.46621 62.1027 8.49517 62.0825 8.51834C62.0478 8.556 62.0131 8.59365 61.9813 8.6342C61.9206 8.70082 61.8628 8.77034 61.7992 8.83985C61.7096 8.94123 61.62 9.04839 61.5275 9.15846L61.5217 9.16425C61.4263 9.27721 61.3339 9.39307 61.2414 9.50603C61.224 9.52631 61.2067 9.54658 61.1893 9.56686C61.1893 9.56976 61.1836 9.57265 61.1807 9.57555C61.2009 9.56107 61.2211 9.54948 61.2414 9.535C61.4986 9.40755 61.7356 9.2917 61.9466 9.18453C61.9755 9.17005 62.0044 9.15556 62.0333 9.14108C62.3426 8.98757 62.597 8.85723 62.7964 8.75296C62.8195 8.74137 62.8484 8.72399 62.886 8.70661C62.9987 8.65158 63.1721 8.57338 63.386 8.51545C63.4149 8.50676 63.4438 8.50097 63.4756 8.49228C63.519 8.48069 63.5623 8.472 63.6057 8.46621C63.6519 8.45752 63.6982 8.45173 63.7444 8.44304C63.7936 8.43724 63.8398 8.43145 63.8889 8.42855C63.9496 8.42276 64.0132 8.42276 64.0739 8.42276C64.7127 8.42276 65.2359 8.60234 65.6521 8.9615C66.0654 9.32066 66.2966 9.80726 66.3487 10.4213H66.47L67.447 7.83768C67.4152 7.79133 67.3776 7.74499 67.3401 7.70154L67.3458 7.70444Z" fill="#292929"/>
<path d="M91.675 6.34227C91.3625 6.34227 91.0735 6.26571 90.8078 6.11258C90.5422 5.95633 90.3313 5.74538 90.175 5.47975C90.0219 5.21412 89.9453 4.92505 89.9453 4.61254C89.9453 4.30003 90.0219 4.01097 90.175 3.74533C90.3313 3.4797 90.5422 3.27032 90.8078 3.11719C91.0735 2.96094 91.3625 2.88281 91.675 2.88281C91.9876 2.88281 92.2766 2.96094 92.5423 3.11719C92.8079 3.27032 93.0173 3.4797 93.1704 3.74533C93.3266 4.01097 93.4048 4.30003 93.4048 4.61254C93.4048 4.92505 93.3266 5.21412 93.1704 5.47975C93.0173 5.74538 92.8079 5.95633 92.5423 6.11258C92.2766 6.26571 91.9876 6.34227 91.675 6.34227ZM91.675 5.9532C91.9157 5.9532 92.1376 5.89382 92.3407 5.77507C92.5469 5.65319 92.7094 5.48913 92.8282 5.28287C92.9501 5.07662 93.011 4.85317 93.011 4.61254C93.011 4.37191 92.9501 4.14847 92.8282 3.94221C92.7094 3.73596 92.5469 3.57345 92.3407 3.4547C92.1376 3.33282 91.9157 3.27188 91.675 3.27188C91.4344 3.27188 91.211 3.33282 91.0047 3.4547C90.8016 3.57345 90.6391 3.73596 90.5172 3.94221C90.3984 4.14847 90.3391 4.37191 90.3391 4.61254C90.3391 4.85317 90.3984 5.07662 90.5172 5.28287C90.6391 5.48913 90.8016 5.65319 91.0047 5.77507C91.211 5.89382 91.4344 5.9532 91.675 5.9532ZM91.6938 5.611C91.5094 5.611 91.3453 5.56882 91.2016 5.48444C91.0578 5.40006 90.9453 5.28287 90.8641 5.13287C90.7828 4.97974 90.7422 4.8063 90.7422 4.61254C90.7422 4.42191 90.7828 4.2516 90.8641 4.10159C90.9453 3.95159 91.0578 3.8344 91.2016 3.75002C91.3453 3.66564 91.5094 3.62346 91.6938 3.62346C91.925 3.62346 92.1204 3.69064 92.2797 3.82502C92.4391 3.9594 92.5298 4.13284 92.5516 4.34535L92.186 4.36879C92.1672 4.25003 92.111 4.15316 92.0172 4.07815C91.9266 4.00003 91.8188 3.96096 91.6938 3.96096C91.5219 3.96096 91.3813 4.0219 91.2719 4.14378C91.1625 4.26566 91.1078 4.42191 91.1078 4.61254C91.1078 4.8063 91.1625 4.96568 91.2719 5.09068C91.3813 5.21256 91.5219 5.2735 91.6938 5.2735C91.825 5.2735 91.9375 5.23131 92.0313 5.14693C92.1282 5.06255 92.186 4.95474 92.2047 4.82349L92.5704 4.84692C92.5454 5.0688 92.4516 5.25162 92.2891 5.39537C92.1266 5.53913 91.9282 5.611 91.6938 5.611Z" fill="#292929"/>
</svg>
